<svg xmlns="http://www.w3.org/2000/svg" width="1200" height="630" viewBox="0 0 1200 630" role="img" aria-labelledby="title desc">
  <title id="title">polycli README header</title>
  <desc id="desc">A command surface connecting four AI coding hosts to ten provider CLIs with honest timing states.</desc>
  <defs>
    <linearGradient id="paper" x1="0" y1="0" x2="1" y2="1">
      <stop offset="0" stop-color="#fbfaf6"/>
      <stop offset="0.55" stop-color="#f3fbf8"/>
      <stop offset="1" stop-color="#fff4ee"/>
    </linearGradient>
    <linearGradient id="ink" x1="0" y1="0" x2="1" y2="1">
      <stop offset="0" stop-color="#121826"/>
      <stop offset="1" stop-color="#243447"/>
    </linearGradient>
    <linearGradient id="accent" x1="0" y1="0" x2="1" y2="0">
      <stop offset="0" stop-color="#18a999"/>
      <stop offset="0.45" stop-color="#3b82f6"/>
      <stop offset="1" stop-color="#f97316"/>
    </linearGradient>
    <filter id="softShadow" x="-20%" y="-20%" width="140%" height="140%">
      <feDropShadow dx="0" dy="18" stdDeviation="22" flood-color="#121826" flood-opacity="0.14"/>
    </filter>
    <style>
      .sans { font-family: Inter, ui-sans-serif, system-ui, -apple-system, BlinkMacSystemFont, "Segoe UI", sans-serif; }
      .mono { font-family: "SFMono-Regular", "Cascadia Code", "Liberation Mono", Menlo, Consolas, monospace; }
      .ink { fill: #121826; }
      .muted { fill: #536174; }
      .panel { fill: #ffffff; stroke: #d9e2e8; stroke-width: 2; }
      .chip { fill: #ffffff; stroke: #d8e1e6; stroke-width: 1.5; }
      .wire { fill: none; stroke: #aab8c2; stroke-width: 3; stroke-linecap: round; }
      .wireAccent { fill: none; stroke: url(#accent); stroke-width: 5; stroke-linecap: round; }
      .tiny { font-size: 16px; font-weight: 700; }
      .small { font-size: 22px; font-weight: 700; }
      .label { font-size: 24px; font-weight: 750; }
    </style>
  </defs>

  <rect width="1200" height="630" rx="38" fill="url(#paper)"/>
  <rect x="32" y="32" width="1136" height="566" rx="30" fill="#ffffff" opacity="0.64"/>

  <g transform="translate(76 72)">
    <rect x="0" y="0" width="502" height="486" rx="28" fill="url(#ink)" filter="url(#softShadow)"/>
    <rect x="28" y="28" width="446" height="430" rx="18" fill="#0f1720" stroke="#354253" stroke-width="2"/>
    <circle cx="58" cy="58" r="8" fill="#ff5f57"/>
    <circle cx="86" cy="58" r="8" fill="#ffbd2e"/>
    <circle cx="114" cy="58" r="8" fill="#28c840"/>

    <text x="54" y="137" class="mono" font-size="72" font-weight="850" fill="#f8fafc">polycli</text>
    <rect x="56" y="166" width="300" height="8" rx="4" fill="url(#accent)"/>
    <text x="58" y="222" class="sans" font-size="28" font-weight="740" fill="#e7eef6">One command surface</text>
    <text x="58" y="257" class="sans" font-size="23" fill="#b7c7d8">across AI coding CLIs</text>

    <g class="mono" font-size="21" font-weight="700">
      <rect x="58" y="304" width="384" height="54" rx="14" fill="#182433" stroke="#35516a"/>
      <text x="82" y="338" fill="#9ff5e5">/polycli:health --json</text>
      <rect x="58" y="374" width="178" height="42" rx="12" fill="#203044" stroke="#45647e"/>
      <text x="81" y="402" fill="#dce9f5">ask</text>
      <rect x="254" y="374" width="188" height="42" rx="12" fill="#203044" stroke="#45647e"/>
      <text x="278" y="402" fill="#dce9f5">review</text>
    </g>
  </g>

  <g transform="translate(608 78)">
    <text x="95" y="0" text-anchor="middle" class="sans ink" font-size="28" font-weight="820">Hosts</text>
    <text x="455" y="0" text-anchor="middle" class="sans ink" font-size="28" font-weight="820">Providers</text>

    <g transform="translate(0 28)">
      <rect class="panel" x="0" y="0" width="190" height="274" rx="22" filter="url(#softShadow)"/>
      <g class="sans small ink">
        <rect class="chip" x="22" y="28" width="146" height="40" rx="12"/>
        <text x="95" y="55" text-anchor="middle">Claude Code</text>
        <rect class="chip" x="22" y="86" width="146" height="40" rx="12"/>
        <text x="95" y="113" text-anchor="middle">Codex</text>
        <rect class="chip" x="22" y="144" width="146" height="40" rx="12"/>
        <text x="95" y="171" text-anchor="middle">Copilot CLI</text>
        <rect class="chip" x="22" y="202" width="146" height="40" rx="12"/>
        <text x="95" y="229" text-anchor="middle">OpenCode</text>
      </g>
    </g>

    <g transform="translate(238 28)">
      <rect x="0" y="0" width="54" height="274" rx="27" fill="#121826" filter="url(#softShadow)"/>
      <path d="M27 42 L27 232" class="wireAccent"/>
      <circle cx="27" cy="48" r="8" fill="#18a999"/>
      <circle cx="27" cy="106" r="8" fill="#3b82f6"/>
      <circle cx="27" cy="164" r="8" fill="#8b5cf6"/>
      <circle cx="27" cy="222" r="8" fill="#f97316"/>
    </g>

    <g transform="translate(350 28)">
      <rect class="panel" x="0" y="0" width="210" height="274" rx="22" filter="url(#softShadow)"/>
      <g class="sans tiny ink">
        <rect class="chip" x="18" y="22" width="78" height="30" rx="10"/>
        <text x="57" y="43" text-anchor="middle">claude</text>
        <rect class="chip" x="114" y="22" width="78" height="30" rx="10"/>
        <text x="153" y="43" text-anchor="middle">gemini</text>
        <rect class="chip" x="18" y="62" width="78" height="30" rx="10"/>
        <text x="57" y="83" text-anchor="middle">kimi</text>
        <rect class="chip" x="114" y="62" width="78" height="30" rx="10"/>
        <text x="153" y="83" text-anchor="middle">qwen</text>
        <rect class="chip" x="18" y="102" width="78" height="30" rx="10"/>
        <text x="57" y="123" text-anchor="middle">copilot</text>
        <rect class="chip" x="114" y="102" width="78" height="30" rx="10"/>
        <text x="153" y="123" text-anchor="middle">opencode</text>
        <rect class="chip" x="18" y="142" width="78" height="30" rx="10"/>
        <text x="57" y="163" text-anchor="middle">pi</text>
        <rect class="chip" x="114" y="142" width="78" height="30" rx="10"/>
        <text x="153" y="163" text-anchor="middle">cmd</text>
        <rect class="chip" x="66" y="182" width="78" height="30" rx="10"/>
        <text x="105" y="203" text-anchor="middle">mini</text>
      </g>
      <rect x="13" y="228" width="184" height="24" rx="12" fill="#edf8f5" stroke="#9bded1"/>
      <text x="105" y="245" text-anchor="middle" class="sans" font-size="13.5" font-weight="800" fill="#0d766c">flat adapters, honest timing</text>
    </g>

    <path d="M190 76 C218 76 218 76 238 76" class="wire"/>
    <path d="M190 134 C218 134 218 134 238 134" class="wire"/>
    <path d="M190 192 C218 192 218 192 238 192" class="wire"/>
    <path d="M190 250 C218 250 218 250 238 250" class="wire"/>
    <path d="M292 165 C320 165 320 165 350 165" class="wireAccent"/>
  </g>

  <g transform="translate(608 430)">
    <rect class="panel" x="0" y="0" width="560" height="104" rx="24"/>
    <text x="28" y="38" class="sans label ink">Timing stays explicit</text>
    <g transform="translate(28 58)" class="sans" font-size="17" font-weight="800">
      <rect x="0" y="0" width="104" height="28" rx="14" fill="#defaf3" stroke="#18a999"/>
      <text x="52" y="20" text-anchor="middle" fill="#087668">measured</text>
      <rect x="124" y="0" width="74" height="28" rx="14" fill="#eef2ff" stroke="#3b82f6"/>
      <text x="161" y="20" text-anchor="middle" fill="#1d4ed8">zero</text>
      <rect x="218" y="0" width="88" height="28" rx="14" fill="#fff7ed" stroke="#f97316"/>
      <text x="262" y="20" text-anchor="middle" fill="#c2410c">missing</text>
      <rect x="326" y="0" width="118" height="28" rx="14" fill="#f2f4f7" stroke="#8a98a8"/>
      <text x="385" y="20" text-anchor="middle" fill="#475467">unsupported</text>
    </g>
  </g>
</svg>
